<?xml version="1.0" standalone="no"?>
<!DOCTYPE svg PUBLIC "-//W3C//DTD SVG 20010904//EN"
 "http://www.w3.org/TR/2001/REC-SVG-20010904/DTD/svg10.dtd">
<svg version="1.0" xmlns="http://www.w3.org/2000/svg"
 width="520.000000pt" height="172.000000pt" viewBox="0 0 520.000000 172.000000"
 preserveAspectRatio="xMidYMid meet">

<g transform="translate(0.000000,172.000000) scale(0.100000,-0.100000)"
fill="#000000" stroke="none">
<path d="M2681 1661 c-6 -11 -11 -22 -11 -25 0 -3 115 -6 256 -6 277 0 325 -6
434 -58 63 -30 158 -120 187 -177 49 -97 54 -219 14 -311 -22 -48 -22 -48 -2
-68 20 -20 20 -20 48 40 36 77 44 205 18 286 -49 147 -152 246 -320 305 -79
27 -85 28 -347 31 -258 3 -267 3 -277 -17z"/>
<path d="M3790 975 l0 -645 425 0 c265 0 444 4 477 11 29 6 94 30 144 54 150
72 252 188 317 359 29 76 31 90 32 216 0 112 -4 147 -22 205 -65 205 -242 377
-443 430 -44 12 -142 15 -492 15 l-438 0 0 -645z m860 595 c41 -6 99 -27 156
-55 73 -35 104 -58 155 -113 78 -82 109 -134 145 -238 23 -66 28 -96 28 -184
0 -72 -5 -123 -18 -164 -60 -201 -199 -350 -385 -413 -64 -22 -78 -22 -478
-23 l-413 0 0 600 0 600 373 0 c204 0 401 -5 437 -10z"/>
<path d="M3910 975 l0 -535 350 0 c216 0 369 4 402 11 179 37 328 182 384 374
21 72 23 208 5 285 -32 133 -143 282 -257 342 -101 54 -137 58 -526 58 l-358
0 0 -535z m832 447 c287 -141 359 -550 140 -785 -62 -66 -115 -101 -190 -126
-57 -20 -84 -21 -397 -21 l-335 0 0 485 0 486 358 -3 357 -3 67 -33z"/>
<path d="M4030 975 l0 -427 303 4 c290 4 304 5 362 27 141 57 245 223 245 396
0 173 -92 325 -238 393 l-57 27 -307 3 -308 3 0 -426z m669 340 c213 -118 250
-443 70 -623 -83 -84 -100 -87 -414 -87 l-270 0 -3 360 c-1 198 0 366 3 373 4
11 60 13 282 10 l278 -3 54 -30z"/>
<path d="M4150 975 l0 -305 230 0 c255 0 277 4 338 63 19 18 46 55 60 82 25
45 27 60 27 160 0 100 -2 115 -27 161 -28 54 -93 119 -134 134 -14 6 -131 10
-260 10 l-234 0 0 -305z m507 229 c114 -92 135 -286 43 -412 -50 -69 -62 -72
-290 -72 l-200 0 0 261 0 260 204 -3 204 -3 39 -31z"/>
<path d="M2633 1543 c-3 -10 -8 -22 -11 -26 -2 -5 128 -7 290 -5 289 3 294 3
352 -21 85 -34 169 -118 190 -190 19 -65 20 -87 4 -148 -10 -41 -9 -47 8 -60
16 -12 20 -10 32 13 8 15 17 53 19 85 15 159 -86 296 -256 349 -56 18 -92 20
-342 20 -257 0 -280 -1 -286 -17z"/>
<path d="M2590 1441 c0 -5 -3 -17 -7 -27 -6 -16 11 -17 268 -12 298 5 350 0
417 -45 53 -34 75 -85 70 -153 -4 -47 -2 -55 15 -60 30 -9 42 12 42 74 -1 73
-27 127 -83 169 -76 58 -113 63 -434 63 -168 0 -288 -4 -288 -9z"/>
<path d="M2542 1315 l-12 -25 313 0 c293 0 314 -1 345 -20 26 -16 32 -26 32
-55 0 -19 4 -35 9 -35 5 0 16 -3 25 -6 13 -5 16 2 16 44 0 44 -4 54 -30 76
-17 14 -47 30 -68 36 -21 6 -159 10 -328 10 l-291 0 -11 -25z"/>
<path d="M2918 1146 l-5 -26 126 0 c69 0 156 -7 192 -14 139 -30 269 -123 325
-233 25 -51 29 -69 29 -148 0 -77 -4 -98 -27 -147 -51 -109 -146 -186 -288
-234 -51 -18 -93 -19 -587 -19 l-532 0 -10 -22 -11 -23 541 0 c601 0 604 0
731 67 86 45 160 119 201 202 30 62 32 72 32 176 0 100 -3 115 -27 165 -58
118 -158 200 -302 246 -68 22 -106 27 -232 31 l-151 6 -5 -27z"/>
<path d="M2914 1030 c0 -19 7 -20 101 -20 135 0 218 -15 292 -51 203 -98 215
-343 23 -464 -19 -12 -60 -30 -90 -40 -51 -17 -92 -18 -552 -16 -325 2 -498
-1 -498 -7 0 -6 -3 -17 -6 -26 -6 -14 42 -16 497 -16 536 0 554 2 654 50 61
29 132 101 157 157 25 57 34 145 19 200 -28 102 -128 196 -249 233 -51 16 -93
20 -206 20 -135 0 -142 -1 -142 -20z"/>
<path d="M2917 917 l5 -25 141 -4 c122 -3 148 -6 183 -25 67 -35 94 -75 94
-136 0 -68 -32 -116 -97 -148 -48 -24 -49 -24 -528 -29 -447 -5 -480 -6 -483
-22 -3 -17 25 -18 488 -18 l491 0 54 25 c133 63 173 197 91 308 -11 15 -50 42
-85 60 -63 31 -71 32 -212 36 l-147 3 5 -25z"/>
<path d="M2918 805 l-5 -25 116 -1 c64 0 132 -5 151 -12 30 -10 35 -17 35 -42
0 -24 -7 -33 -35 -47 -32 -16 -76 -18 -466 -18 -385 0 -433 -2 -438 -16 -3 -9
-6 -18 -6 -20 0 -2 205 -4 455 -4 484 0 485 0 528 48 27 30 20 99 -13 123 -34
25 -114 39 -225 39 -91 0 -93 0 -97 -25z"/>
<path d="M2800 120 c0 -93 1 -100 20 -100 18 0 20 7 20 73 l0 72 55 -60 55
-60 55 60 55 60 0 -72 c0 -66 2 -73 20 -73 19 0 20 7 20 100 0 91 -2 100 -19
100 -10 0 -39 -26 -67 -59 -27 -33 -53 -60 -57 -60 -4 -1 -33 26 -64 59 -30
33 -64 60 -74 60 -17 0 -19 -9 -19 -100z"/>
<path d="M2018 99 l-3 -81 98 4 c90 3 101 5 118 27 28 35 25 85 -7 110 -22 18
-41 21 -115 21 l-87 0 -4 -81z m170 45 c26 -18 30 -65 7 -84 -9 -7 -44 -14
-78 -14 l-62 -1 -3 44 c-2 24 -1 50 2 57 8 20 105 19 134 -2z"/>
<path d="M2330 100 l0 -80 100 0 c118 0 136 18 23 22 -72 3 -78 5 -81 26 -3
20 1 22 42 22 34 0 46 4 46 15 0 11 -12 15 -45 15 -38 0 -45 3 -45 20 0 18 7
20 80 20 47 0 80 4 80 10 0 6 -40 10 -100 10 l-100 0 0 -80z"/>
<path d="M3241 103 c-40 -62 -47 -79 -34 -82 9 -1 20 4 25 13 13 23 134 23
159 0 10 -9 25 -14 33 -12 12 2 4 21 -35 81 -40 59 -57 77 -75 77 -18 0 -34
-17 -73 -77z m119 -17 c0 -4 -20 -6 -45 -6 -25 0 -45 3 -45 8 0 4 9 22 21 41
l20 34 25 -36 c13 -20 24 -38 24 -41z"/>
<path d="M3506 164 c-8 -20 -8 -92 0 -121 6 -21 12 -23 70 -23 36 0 64 -4 64
-10 0 -5 9 -10 20 -10 11 0 20 5 20 10 0 6 13 10 29 10 34 0 41 14 41 80 0 82
2 80 -125 80 -94 0 -114 -3 -119 -16z m199 -64 c0 -49 -2 -55 -22 -58 -14 -2
-27 5 -39 22 -21 34 -38 34 -30 0 6 -24 5 -25 -31 -22 -37 3 -38 4 -41 47 -5
70 -3 72 85 69 l78 -3 0 -55z"/>
<path d="M3842 103 l3 -78 105 0 105 0 3 78 c3 71 1 77 -17 77 -18 0 -20 -8
-23 -67 l-3 -68 -65 0 -65 0 -3 68 c-3 59 -5 67 -23 67 -18 0 -20 -6 -17 -77z"/>
<path d="M4158 100 l-3 -80 103 0 c122 0 139 18 20 22 -77 3 -83 5 -86 25 -3
20 2 22 44 25 67 4 71 28 5 28 -44 0 -51 3 -51 20 0 18 7 20 80 20 47 0 80 4
80 10 0 6 -38 10 -94 10 l-94 0 -4 -80z"/>
<path d="M4410 171 c0 -6 21 -11 48 -13 l47 -3 0 -68 c0 -56 3 -67 17 -67 14
0 18 12 20 68 l3 67 48 3 c26 2 47 7 47 13 0 5 -49 9 -115 9 -66 0 -115 -4
-115 -9z"/>
<path d="M4710 100 l0 -80 100 0 c121 0 135 18 18 22 -77 3 -83 5 -86 26 -3
20 0 22 47 22 38 0 51 4 51 14 0 11 -14 16 -47 18 -36 2 -49 7 -51 21 -3 15 6
17 77 17 47 0 81 4 81 10 0 6 -38 10 -95 10 l-95 0 0 -80z"/>
<path d="M4984 156 c-3 -14 -3 -34 1 -45 6 -19 14 -21 91 -21 83 0 85 -1 82
-22 -3 -21 -9 -23 -67 -26 -35 -2 -68 1 -74 7 -12 12 -37 3 -37 -15 0 -11 22
-14 104 -14 99 0 104 1 109 22 4 12 4 32 1 45 -6 20 -13 22 -87 25 -76 3 -82
5 -85 26 -3 21 0 22 60 22 35 0 68 -4 74 -10 12 -12 39 4 30 19 -5 7 -43 11
-101 11 -92 0 -95 -1 -101 -24z"/>
</g>
</svg>
